<svg aria-roledescription="xychart" role="graphics-document document" viewBox="0 0 700 500" style="max-width: 700px; background-color: white;" xmlns:xlink="http://www.w3.org/1999/xlink" xmlns="http://www.w3.org/2000/svg" width="100%" id="my-svg"><style>#my-svg{font-family:"trebuchet ms",verdana,arial,sans-serif;font-size:16px;fill:#000000;}#my-svg .error-icon{fill:#552222;}#my-svg .error-text{fill:#552222;stroke:#552222;}#my-svg .edge-thickness-normal{stroke-width:1px;}#my-svg .edge-thickness-thick{stroke-width:3.5px;}#my-svg .edge-pattern-solid{stroke-dasharray:0;}#my-svg .edge-thickness-invisible{stroke-width:0;fill:none;}#my-svg .edge-pattern-dashed{stroke-dasharray:3;}#my-svg .edge-pattern-dotted{stroke-dasharray:2;}#my-svg .marker{fill:#000000;stroke:#000000;}#my-svg .marker.cross{stroke:#000000;}#my-svg svg{font-family:"trebuchet ms",verdana,arial,sans-serif;font-size:16px;}#my-svg p{margin:0;}#my-svg :root{--mermaid-font-family:"trebuchet ms",verdana,arial,sans-serif;}</style><g/><g class="main"><rect fill="white" class="background" height="500" width="700"/><g class="chart-title"><text transform="translate(350, 21) rotate(0)" text-anchor="middle" dominant-baseline="middle" font-size="20" fill="#321b67" y="0" x="0">Поддержка RISC-V в llvm-bleach</text></g><g class="plot"><g class="bar-plot-0"><rect stroke-width="0" stroke="#CDE498" fill="#CDE498" height="392.46" width="79.8" y="74.54000000000002" x="69.67226753234863"/><rect stroke-width="0" stroke="#CDE498" fill="#CDE498" height="388.37" width="79.8" y="78.62999999999997" x="206.77920064926147"/><rect stroke-width="0" stroke="#CDE498" fill="#CDE498" height="417" width="79.8" y="50" x="343.88613376617434"/><rect stroke-width="0" stroke="#CDE498" fill="#CDE498" height="52.99000000000001" width="79.8" y="414.01" x="480.9930668830872"/><rect stroke-width="0" stroke="#CDE498" fill="#CDE498" height="48.89999999999998" width="79.8" y="418.1" x="618.1"/></g></g><g class="bottom-axis"><g class="axis-line"><path stroke-width="2" stroke="#321b67" fill="none" d="M 67.57226753234863,468 L 700,468"/></g><g class="label"><text transform="translate(109.57226753234863, 479) rotate(0)" text-anchor="middle" dominant-baseline="text-before-edge" font-size="14" fill="#321b67" y="0" x="0">rv64i</text><text transform="translate(246.67920064926147, 479) rotate(0)" text-anchor="middle" dominant-baseline="text-before-edge" font-size="14" fill="#321b67" y="0" x="0">rv32i</text><text transform="translate(383.7861337661743, 479) rotate(0)" text-anchor="middle" dominant-baseline="text-before-edge" font-size="14" fill="#321b67" y="0" x="0">M</text><text transform="translate(520.8930668830872, 479) rotate(0)" text-anchor="middle" dominant-baseline="text-before-edge" font-size="14" fill="#321b67" y="0" x="0">F</text><text transform="translate(658, 479) rotate(0)" text-anchor="middle" dominant-baseline="text-before-edge" font-size="14" fill="#321b67" y="0" x="0">D</text></g><g class="ticks"><path stroke-width="2" stroke="#321b67" fill="none" d="M 109.57226753234863,469 L 109.57226753234863,474"/><path stroke-width="2" stroke="#321b67" fill="none" d="M 246.67920064926147,469 L 246.67920064926147,474"/><path stroke-width="2" stroke="#321b67" fill="none" d="M 383.7861337661743,469 L 383.7861337661743,474"/><path stroke-width="2" stroke="#321b67" fill="none" d="M 520.8930668830872,469 L 520.8930668830872,474"/><path stroke-width="2" stroke="#321b67" fill="none" d="M 658,469 L 658,474"/></g></g><g class="left-axis"><g class="axisl-line"><path stroke-width="2" stroke="#321b67" fill="none" d="M 66.57226753234863,42 L 66.57226753234863,467"/></g><g class="label"><text transform="translate(55.57226753234863, 50) rotate(0)" text-anchor="end" dominant-baseline="middle" font-size="14" fill="#321b67" y="0" x="0">100</text><text transform="translate(55.57226753234863, 90.89999999999999) rotate(0)" text-anchor="end" dominant-baseline="middle" font-size="14" fill="#321b67" y="0" x="0">90</text><text transform="translate(55.57226753234863, 131.79999999999998) rotate(0)" text-anchor="end" dominant-baseline="middle" font-size="14" fill="#321b67" y="0" x="0">80</text><text transform="translate(55.57226753234863, 172.70000000000002) rotate(0)" text-anchor="end" dominant-baseline="middle" font-size="14" fill="#321b67" y="0" x="0">70</text><text transform="translate(55.57226753234863, 213.60000000000002) rotate(0)" text-anchor="end" dominant-baseline="middle" font-size="14" fill="#321b67" y="0" x="0">60</text><text transform="translate(55.57226753234863, 254.5) rotate(0)" text-anchor="end" dominant-baseline="middle" font-size="14" fill="#321b67" y="0" x="0">50</text><text transform="translate(55.57226753234863, 295.4) rotate(0)" text-anchor="end" dominant-baseline="middle" font-size="14" fill="#321b67" y="0" x="0">40</text><text transform="translate(55.57226753234863, 336.29999999999995) rotate(0)" text-anchor="end" dominant-baseline="middle" font-size="14" fill="#321b67" y="0" x="0">30</text><text transform="translate(55.57226753234863, 377.20000000000005) rotate(0)" text-anchor="end" dominant-baseline="middle" font-size="14" fill="#321b67" y="0" x="0">20</text><text transform="translate(55.57226753234863, 418.1) rotate(0)" text-anchor="end" dominant-baseline="middle" font-size="14" fill="#321b67" y="0" x="0">10</text><text transform="translate(55.57226753234863, 459) rotate(0)" text-anchor="end" dominant-baseline="middle" font-size="14" fill="#321b67" y="0" x="0">0</text></g><g class="ticks"><path stroke-width="2" stroke="#321b67" fill="none" d="M 65.57226753234863,50 L 60.57226753234863,50"/><path stroke-width="2" stroke="#321b67" fill="none" d="M 65.57226753234863,90.89999999999999 L 60.57226753234863,90.89999999999999"/><path stroke-width="2" stroke="#321b67" fill="none" d="M 65.57226753234863,131.79999999999998 L 60.57226753234863,131.79999999999998"/><path stroke-width="2" stroke="#321b67" fill="none" d="M 65.57226753234863,172.70000000000002 L 60.57226753234863,172.70000000000002"/><path stroke-width="2" stroke="#321b67" fill="none" d="M 65.57226753234863,213.60000000000002 L 60.57226753234863,213.60000000000002"/><path stroke-width="2" stroke="#321b67" fill="none" d="M 65.57226753234863,254.5 L 60.57226753234863,254.5"/><path stroke-width="2" stroke="#321b67" fill="none" d="M 65.57226753234863,295.4 L 60.57226753234863,295.4"/><path stroke-width="2" stroke="#321b67" fill="none" d="M 65.57226753234863,336.29999999999995 L 60.57226753234863,336.29999999999995"/><path stroke-width="2" stroke="#321b67" fill="none" d="M 65.57226753234863,377.20000000000005 L 60.57226753234863,377.20000000000005"/><path stroke-width="2" stroke="#321b67" fill="none" d="M 65.57226753234863,418.1 L 60.57226753234863,418.1"/><path stroke-width="2" stroke="#321b67" fill="none" d="M 65.57226753234863,459 L 60.57226753234863,459"/></g><g class="title"><text transform="translate(5, 254.5) rotate(270)" text-anchor="middle" dominant-baseline="text-before-edge" font-size="16" fill="#321b67" y="0" x="0">Доля поддержанных инструкций (в %)</text></g></g></g><g class="mermaid-tmp-group"/></svg>